HIERARCHY
ROOT Hips
{
	OFFSET 0.000000 0.000000 0.000000
	CHANNELS 6 Xposition Yposition Zposition Zrotation Yrotation Xrotation 
	JOINT LHipJoint
	{
		OFFSET 0.000000 0.000000 0.000000
		CHANNELS 3 Zrotation Yrotation Xrotation
		JOINT LeftUpLeg
		{
			OFFSET 1.363060 -1.794630 0.839290
			CHANNELS 3 Zrotation Yrotation Xrotation
			JOINT LeftLeg
			{
				OFFSET 2.448110 -6.726130 0.000000
				CHANNELS 3 Zrotation Yrotation Xrotation
				JOINT LeftFoot
				{
					OFFSET 2.562200 -7.039590 0.000000
					CHANNELS 3 Zrotation Yrotation Xrotation
					JOINT LeftToeBase
					{
						OFFSET 0.157640 -0.433110 2.322550
						CHANNELS 3 Zrotation Yrotation Xrotation
						End Site
						{
							OFFSET 0.000000 0.000000 0.000000
						}
					}
				}
			}
		}
	}
	JOINT RHipJoint
	{
		OFFSET 0.000000 0.000000 0.000000
		CHANNELS 3 Zrotation Yrotation Xrotation
		JOINT RightUpLeg
		{
			OFFSET -1.305520 -1.794630 0.839290
			CHANNELS 3 Zrotation Yrotation Xrotation
			JOINT RightLeg
			{
				OFFSET -2.542530 -6.985550 0.000000
				CHANNELS 3 Zrotation Yrotation Xrotation
				JOINT RightFoot
				{
					OFFSET -2.568260 -7.056230 0.000000
					CHANNELS 3 Zrotation Yrotation Xrotation
					JOINT RightToeBase
					{
						OFFSET -0.164730 -0.452590 2.363150
						CHANNELS 3 Zrotation Yrotation Xrotation
						End Site
						{
							OFFSET 0.000000 0.000000 0.000000
						}
					}
				}
			}
		}
	}
}
MOTION
Frames: 22
Frame Time: 0.008333
-12.665388 15.637910 -1.417478 133.578379 88.254725 166.164665 -11.038532 0.565195 -5.441125 -7.809759 11.228071 -28.217388 -2.776322 2.629678 46.730422 1.642024 5.791086 -23.708291 -2.134300 0.000001 -60.289400 7.834961 1.392173 -1.617055 18.592107 0.745158 -74.499146 2.652291 -5.484986 51.067747 -0.708157 0.407505 -12.375967 0.022500 0.000000 -14.470000
-12.475429 15.625987 -1.388654 132.984471 87.961707 165.276548 -11.159908 0.623085 -5.444605 -7.415959 11.204582 -27.419607 -2.620466 2.671385 47.156018 1.495849 5.518666 -22.132124 -1.837600 0.000001 -62.907200 7.857736 1.458034 -1.760126 18.101202 0.618380 -74.038608 2.443858 -5.562212 52.743082 -0.833604 0.113169 -13.621020 0.095200 0.000000 -8.540200
-12.286923 15.617502 -1.359994 133.450394 87.690399 165.484593 -11.284566 0.672390 -5.438187 -6.994317 11.134805 -26.811822 -2.436844 2.737009 47.775262 1.355050 5.279905 -20.361074 -1.540100 -0.000001 -65.113300 7.874031 1.510994 -1.892922 17.686420 0.528639 -73.532885 2.262831 -5.621075 54.259206 -0.974360 -0.247716 -14.894175 0.184200 0.000000 -4.031600
-12.100143 15.612559 -1.331281 134.672114 87.432548 166.492980 -11.404351 0.711915 -5.419620 -6.565214 11.003533 -26.413556 -2.226443 2.823072 48.597548 1.230001 5.104592 -18.437769 -1.256300 0.000000 -66.660400 7.888280 1.551339 -2.013715 17.347380 0.466528 -72.989936 2.110526 -5.662690 55.592666 -1.127797 -0.663252 -16.174387 0.292800 0.000001 -0.828100
-11.915314 15.611119 -1.302275 136.349912 87.179081 168.008556 -11.513290 0.740232 -5.387109 -6.152596 10.799087 -26.239657 -1.993007 2.925367 49.626762 1.130810 5.023297 -16.429034 -0.998200 0.000000 -67.319300 7.903318 1.580906 -2.121113 17.076710 0.422371 -72.420334 1.985951 -5.688188 56.732053 -1.290851 -1.121212 -17.436388 -179.577900 -0.000000 -1.231600
-11.732717 15.612973 -1.272829 138.191278 86.921814 169.740380 -11.607646 0.755675 -5.341140 -5.779751 10.517316 -26.293610 -1.742850 3.039337 50.859082 1.065592 5.064070 -14.423079 -0.773000 -0.000001 -66.903099 7.920753 1.602487 -2.215835 16.862370 0.384278 -71.831068 1.886560 -5.698793 57.677167 -1.459203 -1.605926 -18.652621 -179.429500 -0.000000 -2.336200
-11.552533 15.617805 -1.242713 139.889854 86.652120 171.382192 -11.685238 0.756950 -5.282841 -5.472777 10.158534 -26.573631 -1.483735 3.160093 52.284073 1.039444 5.251505 -12.521288 -0.582500 0.000001 -65.293700 7.941696 1.618887 -2.297781 16.686068 0.340641 -71.233397 1.808295 -5.696305 58.438711 -1.627431 -2.099695 -19.792850 -179.266700 0.000000 -2.657000
-11.374938 15.625259 -1.211713 141.181979 86.364116 172.666450 -11.745217 0.742922 -5.215909 -5.256006 9.731480 -27.068121 -1.223799 3.283185 53.882393 1.053891 5.604760 -10.826203 -0.424300 0.000000 -62.496100 7.967119 1.632733 -2.367978 16.525878 0.279384 -70.635868 1.746680 -5.683085 59.035218 -1.789325 -2.582732 -20.830755 -179.096801 0.000000 -2.359500
-11.200045 15.634968 -1.180035 142.071202 86.062222 173.589550 -11.789039 0.711677 -5.145491 -5.132687 9.259976 -27.763961 -0.970396 3.406767 55.632291 1.105590 6.122641 -9.424384 -0.293700 -0.000000 -58.590200 7.996731 1.643557 -2.428390 16.377066 0.196142 -70.041105 1.698577 -5.661699 59.488809 -1.939178 -3.036232 -21.748561 -178.927900 0.000000 -1.631800
-11.027960 15.646627 -1.147758 142.521771 85.751461 174.109146 -11.817725 0.662894 -5.076403 -5.109220 8.766907 -28.644117 -0.729079 3.529301 57.501060 1.190337 6.802067 -8.378392 -0.188600 0.000000 -53.813800 8.030944 1.651536 -2.479849 16.229699 0.088521 -69.454854 1.660820 -5.634824 59.825004 -2.071831 -3.442186 -22.537523 -178.768800 0.000000 -0.640501
-10.858798 15.659968 -1.114655 142.406826 85.435361 174.088716 -11.831800 0.597913 -5.014687 -5.199104 8.273298 -29.679277 -0.502761 3.648788 59.441404 1.303989 7.637000 -7.701046 -0.108900 -0.000000 -48.641301 8.071034 1.658719 -2.525023 16.064878 -0.050120 -68.881075 1.630790 -5.605617 60.074292 -2.182793 -3.780578 -23.208281 1.373600 -0.000000 -0.404100
-10.692437 15.674801 -1.081410 141.969629 85.131879 173.765882 -11.834021 0.516474 -4.962991 -5.379612 7.807674 -30.855367 -0.293701 3.766849 61.417390 1.440062 8.591914 -7.391361 -0.060300 -0.000000 -43.308700 8.115182 1.661726 -2.564840 15.900320 -0.208429 -68.319434 1.608023 -5.575626 60.256349 -2.270390 -4.042897 -23.767152 1.494300 -0.000000 -1.398800
-10.528898 15.691041 -1.047939 141.147696 84.849332 173.069433 -11.824957 0.420853 -4.924845 -5.652676 7.385010 -32.141385 -0.102080 3.882244 63.376607 1.594256 9.639423 -7.396543 -0.047200 -0.000000 -38.318200 8.163518 1.661828 -2.602303 15.728165 -0.387262 -67.769787 1.591748 -5.546914 60.395056 -2.333553 -4.218047 -24.240255 1.591000 0.000000 -2.201000
-10.368009 15.708642 -1.014547 140.032715 84.601184 172.085989 -11.805855 0.312601 -4.900761 -6.002769 7.017958 -33.516671 0.072014 3.995121 65.276536 1.760813 10.735272 -7.655482 -0.073900 0.000000 -33.988799 8.214503 1.657622 -2.639099 15.558801 -0.579445 -67.230475 1.582278 -5.520331 60.503599 -2.373122 -4.304016 -24.645930 1.663200 -0.000001 -2.779900
-10.209564 15.727570 -0.981741 138.726614 84.399033 170.914337 -11.777730 0.193403 -4.889680 -6.410803 6.714272 -34.967725 0.226607 4.106564 67.088460 1.932044 11.819506 -8.149453 -0.151300 0.000000 -30.076700 8.266187 1.646489 -2.675726 15.407159 -0.777441 -66.700461 1.580133 -5.496271 60.588998 -2.390845 -4.304020 -24.995943 1.711100 -0.000000 -3.186200
-10.053312 15.747856 -0.949506 137.212382 84.248778 169.533973 -11.740595 0.065714 -4.889814 -6.866784 6.471376 -36.473947 0.362434 4.215318 68.771687 2.100933 12.843701 -8.786330 -0.272700 0.000000 -26.948400 8.317416 1.628549 -2.714285 15.277258 -0.979395 -66.175941 1.585954 -5.474708 60.654999 -2.389300 -4.222804 -25.309461 1.736900 0.000000 -3.440600
-9.898961 15.769452 -0.918123 135.531113 84.154833 167.984972 -11.694651 -0.068663 -4.897283 -7.354130 6.282023 -38.025117 0.479074 4.321075 70.301500 2.258804 13.751827 -9.511198 -0.431500 0.000000 -24.542800 8.366617 1.602429 -2.755479 15.179363 -1.182010 -65.654212 1.600248 -5.455201 60.699566 -2.371257 -4.069626 -25.592522 1.742300 -0.000000 -3.629700
-9.746169 15.792310 -0.887634 133.688333 84.116989 166.272726 -11.639808 -0.207725 -4.907425 -7.860037 6.133137 -39.611978 0.576708 4.422931 71.657029 2.397076 14.494940 -10.260717 -0.612100 0.000000 -22.865500 8.412752 1.567873 -2.800022 15.118345 -1.384617 -65.132433 1.623246 -5.437088 60.718907 -2.339451 -3.854437 -25.849373 1.729200 0.000000 -3.825400
-9.594689 15.816248 -0.858169 131.689567 84.130945 164.402295 -11.576215 -0.349896 -4.915392 -8.372750 6.007742 -41.228218 0.655049 4.520427 72.829845 2.507915 15.030758 -11.004241 -0.801300 -0.000000 -21.657700 8.455143 1.524694 -2.849020 15.097100 -1.589769 -64.607378 1.654533 -5.419948 60.709686 -2.295738 -3.587048 -26.075222 1.698700 -0.000000 -4.119500
-9.444075 15.841103 -0.829599 129.506100 84.189780 162.346981 -11.503515 -0.493496 -4.915460 -8.884821 5.885741 -42.868977 0.715780 4.611925 73.808420 2.585961 15.339304 -11.670062 -0.972300 0.000000 -21.063301 8.493796 1.474268 -2.902599 15.112632 -1.798415 -64.077238 1.693367 -5.402778 60.667504 -2.242030 -3.277072 -26.266868 1.652200 -0.000000 -4.546400
-9.294168 15.866609 -0.801890 127.126417 84.283762 160.095006 -11.421979 -0.637554 -4.903298 -9.389579 5.747376 -44.529894 0.759866 4.696756 74.595311 2.628263 15.412686 -12.234640 -1.110100 0.000000 -20.927500 8.529053 1.418050 -2.961874 15.159235 -2.014668 -63.539949 1.738028 -5.385333 60.592664 -2.178762 -2.932137 -26.411562 1.589900 -0.000000 -5.172200
-9.144687 15.892482 -0.774934 124.519261 84.401839 157.616267 -11.331587 -0.780896 -4.875218 -9.884168 5.575204 -46.207679 0.788453 4.774177 75.194091 2.635245 15.263021 -12.678318 -1.203100 -0.000000 -21.165400 8.561757 1.358257 -3.027022 15.227658 -2.240382 -62.994886 1.786421 -5.367132 60.487101 -2.106338 -2.559023 -26.499110 1.512499 0.000000 -6.014300
